<svg xmlns="http://www.w3.org/2000/svg" viewBox="0 0 500 500"><g id="freepik--background-simple--inject-2"><path d="M450.54,106c-9.68-27.73-31.87-51.57-58.21-64.56-36.43-18-84.83-6.7-109.56,25.52-13.48,17.56-19.86,39.35-28.63,59.66s-21.47,40.73-41.8,49.49c-23.17,10-50.15,2.38-74.89,7.37-38.74,7.82-66,48-65.36,87.53.36,20.74,7.45,40.41,18.88,57.54,14.81,22.18,36.61,38.74,61.61,48.06C201.93,395,262.12,406,312.71,395.87c58.26-11.62,117-57,139.05-112.14,10.91-27.29,11.22-61.41,11.37-90.81S460.23,133.72,450.54,106Z" style="fill:#e0e0e0"></path></g><g id="freepik--Desk--inject-2"><polygon points="7.25 348.65 10.98 361.75 366.69 465.05 489.04 384.31 489.04 373.29 7.25 348.65" style="fill:#e0e0e0"></polygon><polygon points="134.86 289.38 489.04 373.29 366.69 453.13 7.25 348.65 134.86 289.38" style="fill:#ebebeb"></polygon><path d="M375.91,447.61a92.26,92.26,0,0,1-4.48,8.62,89.42,89.42,0,0,1-4.94,8.37,180.35,180.35,0,0,1,9.42-17Z" style="fill:#ebebeb"></path><path d="M387.6,440a92.26,92.26,0,0,1-4.48,8.62,89.42,89.42,0,0,1-4.94,8.37,180.35,180.35,0,0,1,9.42-17Z" style="fill:#ebebeb"></path><path d="M399.29,432.36a92.26,92.26,0,0,1-4.48,8.62,87.83,87.83,0,0,1-4.94,8.37,180.35,180.35,0,0,1,9.42-17Z" style="fill:#ebebeb"></path><path d="M411,424.74a92.26,92.26,0,0,1-4.48,8.62,89.42,89.42,0,0,1-4.94,8.37,180.35,180.35,0,0,1,9.42-17Z" style="fill:#ebebeb"></path><path d="M422.67,417.12a92.26,92.26,0,0,1-4.48,8.62,89.42,89.42,0,0,1-4.94,8.37,90.2,90.2,0,0,1,4.48-8.63A88.38,88.38,0,0,1,422.67,417.12Z" style="fill:#ebebeb"></path><path d="M434.36,409.49a92.26,92.26,0,0,1-4.48,8.62,87.83,87.83,0,0,1-4.94,8.37,180.35,180.35,0,0,1,9.42-17Z" style="fill:#ebebeb"></path><path d="M446.05,401.87a92.26,92.26,0,0,1-4.48,8.62,89.42,89.42,0,0,1-4.94,8.37,180.35,180.35,0,0,1,9.42-17Z" style="fill:#ebebeb"></path><path d="M457.74,394.25a95.23,95.23,0,0,1-4.48,8.62,88.38,88.38,0,0,1-4.94,8.36,89.43,89.43,0,0,1,4.48-8.62A88.38,88.38,0,0,1,457.74,394.25Z" style="fill:#ebebeb"></path><path d="M469.43,386.62a92.26,92.26,0,0,1-4.48,8.62,89.42,89.42,0,0,1-4.94,8.37,180.35,180.35,0,0,1,9.42-17Z" style="fill:#ebebeb"></path><path d="M481.12,379a92.26,92.26,0,0,1-4.48,8.62A89.42,89.42,0,0,1,471.7,396a90.2,90.2,0,0,1,4.48-8.63A88.38,88.38,0,0,1,481.12,379Z" style="fill:#ebebeb"></path><path d="M489.05,378.16a33.76,33.76,0,0,1-2.6,5.23,33.3,33.3,0,0,1-3.06,5,32.7,32.7,0,0,1,2.6-5.23A31.75,31.75,0,0,1,489.05,378.16Z" style="fill:#ebebeb"></path><path d="M363.56,464a16.13,16.13,0,0,1-2.07-2c-1.23-1.31-2.87-3.17-4.6-5.28s-3.24-4.08-4.29-5.53a14.35,14.35,0,0,1-1.59-2.42,18,18,0,0,1,1.88,2.2l4.4,5.42,4.47,5.36A17.94,17.94,0,0,1,363.56,464Z" style="fill:#ebebeb"></path><path d="M347.07,459.26a14.56,14.56,0,0,1-2.07-2c-1.23-1.31-2.87-3.16-4.6-5.27s-3.24-4.08-4.29-5.53a14.62,14.62,0,0,1-1.59-2.43,19,19,0,0,1,1.88,2.2l4.4,5.43c1.69,2,3.22,3.85,4.47,5.36A17.52,17.52,0,0,1,347.07,459.26Z" style="fill:#ebebeb"></path><path d="M330.58,454.57a14.56,14.56,0,0,1-2.07-2c-1.23-1.31-2.87-3.16-4.6-5.27s-3.24-4.08-4.29-5.53a14.15,14.15,0,0,1-1.59-2.43,17.9,17.9,0,0,1,1.88,2.2l4.4,5.43,4.47,5.36A18.38,18.38,0,0,1,330.58,454.57Z" style="fill:#ebebeb"></path><path d="M314.09,449.89a15.3,15.3,0,0,1-2.07-2c-1.23-1.31-2.87-3.17-4.6-5.28s-3.24-4.08-4.29-5.53a14.35,14.35,0,0,1-1.59-2.42,17,17,0,0,1,1.88,2.2l4.4,5.42,4.47,5.36A16.85,16.85,0,0,1,314.09,449.89Z" style="fill:#ebebeb"></path><path d="M297.6,445.2a14.56,14.56,0,0,1-2.07-2c-1.23-1.31-2.87-3.16-4.6-5.27s-3.24-4.08-4.29-5.53a14.62,14.62,0,0,1-1.59-2.43,17.9,17.9,0,0,1,1.88,2.2l4.4,5.43c1.69,2,3.22,3.85,4.47,5.36A16.47,16.47,0,0,1,297.6,445.2Z" style="fill:#ebebeb"></path><path d="M281.11,440.51a14.56,14.56,0,0,1-2.07-2c-1.23-1.31-2.87-3.16-4.6-5.27s-3.24-4.08-4.29-5.53a14.15,14.15,0,0,1-1.59-2.43,17.62,17.62,0,0,1,1.88,2.21l4.4,5.42,4.47,5.36A17.23,17.23,0,0,1,281.11,440.51Z" style="fill:#ebebeb"></path><path d="M264.62,435.83a14.56,14.56,0,0,1-2.07-2c-1.23-1.31-2.87-3.16-4.6-5.28s-3.24-4.08-4.29-5.53a14.35,14.35,0,0,1-1.59-2.42,17,17,0,0,1,1.88,2.2l4.4,5.42,4.47,5.36A16.85,16.85,0,0,1,264.62,435.83Z" style="fill:#ebebeb"></path><path d="M248.13,430.21a14.56,14.56,0,0,1-2.07-2c-1.22-1.31-2.87-3.16-4.6-5.27s-3.24-4.08-4.29-5.53a14.15,14.15,0,0,1-1.59-2.43,17.9,17.9,0,0,1,1.88,2.2l4.4,5.43,4.47,5.36A17.23,17.23,0,0,1,248.13,430.21Z" style="fill:#ebebeb"></path><path d="M229.78,425.11a14.25,14.25,0,0,1-2.08-2c-1.22-1.31-2.86-3.16-4.6-5.27s-3.24-4.08-4.28-5.53a16.15,16.15,0,0,1-1.6-2.43,17.35,17.35,0,0,1,1.89,2.2l4.39,5.43c1.7,2,3.23,3.86,4.48,5.36A17.52,17.52,0,0,1,229.78,425.11Z" style="fill:#ebebeb"></path><path d="M211.42,420a14.56,14.56,0,0,1-2.07-2c-1.23-1.31-2.87-3.16-4.6-5.27s-3.24-4.08-4.29-5.54a14.35,14.35,0,0,1-1.59-2.42,17,17,0,0,1,1.88,2.2c1.23,1.52,2.74,3.37,4.4,5.43l4.47,5.35A16.85,16.85,0,0,1,211.42,420Z" style="fill:#ebebeb"></path><path d="M193,414.08a14.56,14.56,0,0,1-2.07-2c-1.22-1.31-2.87-3.16-4.6-5.27S183,402.7,182,401.25a14.62,14.62,0,0,1-1.59-2.43,17.9,17.9,0,0,1,1.88,2.2l4.4,5.43,4.47,5.36A17.23,17.23,0,0,1,193,414.08Z" style="fill:#ebebeb"></path><path d="M174.48,408.91a14.56,14.56,0,0,1-2.07-2c-1.22-1.31-2.87-3.16-4.6-5.27s-3.24-4.08-4.29-5.53a14.62,14.62,0,0,1-1.59-2.43,17.9,17.9,0,0,1,1.88,2.2c1.24,1.52,2.74,3.38,4.4,5.43l4.48,5.36A16.51,16.51,0,0,1,174.48,408.91Z" style="fill:#ebebeb"></path><path d="M155.9,403.48a14.56,14.56,0,0,1-2.07-2c-1.23-1.31-2.87-3.16-4.61-5.27s-3.23-4.08-4.28-5.54a15.83,15.83,0,0,1-1.6-2.42,16.48,16.48,0,0,1,1.89,2.2l4.4,5.43,4.47,5.35A17.94,17.94,0,0,1,155.9,403.48Z" style="fill:#ebebeb"></path><path d="M138,398.45a14.56,14.56,0,0,1-2.07-2c-1.23-1.31-2.87-3.16-4.6-5.27s-3.24-4.08-4.29-5.54a14.35,14.35,0,0,1-1.59-2.42,18,18,0,0,1,1.88,2.2c1.23,1.52,2.74,3.37,4.4,5.43l4.47,5.35A17.94,17.94,0,0,1,138,398.45Z" style="fill:#ebebeb"></path><path d="M119.64,393.65a14.56,14.56,0,0,1-2.07-2c-1.22-1.31-2.86-3.16-4.6-5.27s-3.24-4.08-4.29-5.54a15.2,15.2,0,0,1-1.59-2.42,17.35,17.35,0,0,1,1.89,2.2l4.39,5.43,4.48,5.36A15.82,15.82,0,0,1,119.64,393.65Z" style="fill:#ebebeb"></path><path d="M103.51,388.27a14.56,14.56,0,0,1-2.07-2c-1.22-1.31-2.86-3.16-4.6-5.27s-3.24-4.08-4.29-5.54A15.2,15.2,0,0,1,91,373a16.48,16.48,0,0,1,1.89,2.2l4.39,5.43,4.48,5.35A16.17,16.17,0,0,1,103.51,388.27Z" style="fill:#ebebeb"></path><path d="M87.38,382.89a15.22,15.22,0,0,1-2.07-2c-1.22-1.31-2.86-3.16-4.6-5.28s-3.24-4.08-4.29-5.53a15.2,15.2,0,0,1-1.59-2.42,16.48,16.48,0,0,1,1.89,2.2l4.39,5.42,4.48,5.36A16.17,16.17,0,0,1,87.38,382.89Z" style="fill:#ebebeb"></path><path d="M72.76,378.89a14.56,14.56,0,0,1-2.07-2c-1.23-1.31-2.87-3.16-4.6-5.27s-3.24-4.08-4.29-5.54a14.35,14.35,0,0,1-1.59-2.42,18,18,0,0,1,1.88,2.2l4.4,5.42L71,376.61A17.94,17.94,0,0,1,72.76,378.89Z" style="fill:#ebebeb"></path><path d="M56,374.31a14.56,14.56,0,0,1-2.07-2c-1.23-1.31-2.87-3.16-4.6-5.28s-3.24-4.08-4.29-5.53a14.35,14.35,0,0,1-1.59-2.42,17,17,0,0,1,1.88,2.2l4.4,5.42L54.2,372A16.85,16.85,0,0,1,56,374.31Z" style="fill:#ebebeb"></path><path d="M40.75,369.88a15.5,15.5,0,0,1-2.08-2c-1.22-1.3-2.86-3.16-4.6-5.27s-3.24-4.08-4.28-5.53a15,15,0,0,1-1.6-2.43,17.09,17.09,0,0,1,1.89,2.21l4.39,5.42L39,367.6A17.94,17.94,0,0,1,40.75,369.88Z" style="fill:#ebebeb"></path><path d="M23.51,364.5a15.87,15.87,0,0,1-2.07-2c-1.23-1.31-2.87-3.16-4.61-5.27s-3.23-4.08-4.28-5.53a15.57,15.57,0,0,1-1.6-2.43,17.09,17.09,0,0,1,1.89,2.21l4.4,5.42,4.47,5.36A17.94,17.94,0,0,1,23.51,364.5Z" style="fill:#ebebeb"></path></g><g id="freepik--Character--inject-2"><path d="M351.65,262.13l-1.29.67q-1.07,25.17-2.14,50.33c-.39,9.25-.75,18.68,2.69,27.75l55.37,14.75a29.09,29.09,0,0,0,3.9-12.3,427.87,427.87,0,0,0,1.68-55.9c-.16-5.84.36-19.38-5-23-9.07-6.09-17.46-4-26.63-6.06s-18.59,2.89-28,2.79" style="fill:#263238"></path><path d="M325,321.31l-16.32-25.84c-.68,0-48.14,9.52-48.14,9.52s-33.06,2.86-33.87,3.4-10.88,19.18-10.88,19.18c6.66,1.09,9.38-7.48,9.38-7.48l6.67-3.81,8.16,1c-2.33,1.06-4.3,2.12-4.9,2.86-1.77,2.17-2.72,6.39-1.63,6.53s3.07-3,8.2-3.68,18.14-3.4,18.14-3.4h0l4.67.55Z" style="fill:#b78876"></path><path d="M248.15,313.9a48.42,48.42,0,0,1-4.63,2,44.76,44.76,0,0,1-4.64,2,17,17,0,0,1,4.44-2.45A16.58,16.58,0,0,1,248.15,313.9Z" style="fill:#a36957"></path><path d="M284.14,164.2c1.6,18.35,3,37.89-5.67,54.15a7.82,7.82,0,0,0,4.79-3.13c-.71,6.09-1.42,12.26-.42,18.3s4,12,9.13,15.31c.07-.76.15-1.52.22-2.27,2,12.94,13.38,23.84,26.4,25.26,5.62.62,12.08-.83,15.06-5.63,2.27-3.66,2-8.29,1.62-12.57l-7-83.59c-.65-7.78-1.45-15.95-5.9-22.35A22.32,22.32,0,0,0,282,156.63" style="fill:#263238"></path><path d="M321.57,217.93s-13.53,7.84-17.66,14.34S301.32,257,301.32,257a85.94,85.94,0,0,0-2.84,19.48c0,10.53,8.15,18.25,10.23,23.9s.65,31.46.65,31.46l77,1.88V280.66l10.24.93s3.33-51.8-12.15-58.35-34.1-13.05-34.1-13.05Z" style="fill:#675B9D"></path><path d="M397,266.39a4.66,4.66,0,0,1-.61.86,8.16,8.16,0,0,1-2.35,1.89,11.34,11.34,0,0,1-4.58,1.32,15.42,15.42,0,0,1-6.25-.92,43,43,0,0,1-6.91-3.3,44.89,44.89,0,0,0-7.85-3.74,17.43,17.43,0,0,0-9.42-.32,55.12,55.12,0,0,0-9.66,3.64,52.43,52.43,0,0,1-9.78,3.63,17.45,17.45,0,0,1-9.67-.47,38,38,0,0,1-7.78-4.09A60.92,60.92,0,0,0,315.6,261a17.85,17.85,0,0,0-6-1.76,12.68,12.68,0,0,0-4.66.37,10.54,10.54,0,0,0-3.57,1.82,5.12,5.12,0,0,1,.8-.69,9.17,9.17,0,0,1,2.71-1.32,12.5,12.5,0,0,1,4.75-.47,18.13,18.13,0,0,1,6.08,1.72,58.28,58.28,0,0,1,6.63,3.82,38.6,38.6,0,0,0,7.71,4,17.08,17.08,0,0,0,7,.81c.81-.09,1.62-.23,2.43-.39a52.58,52.58,0,0,0,9.68-3.61,54.83,54.83,0,0,1,9.76-3.65,17.75,17.75,0,0,1,9.67.35,44.46,44.46,0,0,1,7.92,3.82,43.86,43.86,0,0,0,6.82,3.33,15.42,15.42,0,0,0,6.11,1A11.35,11.35,0,0,0,394,269a8.34,8.34,0,0,0,2.36-1.78C396.8,266.68,397,266.37,397,266.39Z" style="fill:#fafafa"></path><path d="M394.54,247.09a1.07,1.07,0,0,1-.19.18c-.13.1-.31.27-.59.46a9,9,0,0,1-2.61,1.21c-2.41.74-6.25.62-10.4-1.14-2.07-.87-4.21-2.07-6.53-3.27a26.86,26.86,0,0,0-7.74-2.89,25,25,0,0,0-9.1.23,60.06,60.06,0,0,0-9.48,2.78c-3.19,1.17-6.29,2.37-9.39,3.27a33.52,33.52,0,0,1-9.16,1.5,33.18,33.18,0,0,1-15.12-3.88,62,62,0,0,1-9-5.61c-1-.76-1.76-1.35-2.27-1.77l-.57-.47c-.13-.11-.2-.17-.19-.18s.08,0,.22.14l.6.43,2.33,1.68a67.16,67.16,0,0,0,9,5.45,33.24,33.24,0,0,0,14.95,3.73,33.6,33.6,0,0,0,9-1.51c3.06-.89,6.16-2.1,9.35-3.27a60.38,60.38,0,0,1,9.56-2.79,25.3,25.3,0,0,1,9.28-.2,27.15,27.15,0,0,1,7.86,3c2.32,1.22,4.44,2.43,6.48,3.31,4.06,1.78,7.82,1.95,10.19,1.29A10.28,10.28,0,0,0,394.54,247.09Z" style="fill:#fafafa"></path><path d="M360,297.23a4,4,0,0,1-.54.28c-.35.16-.88.4-1.57.69a37.37,37.37,0,0,1-6,2,16.18,16.18,0,0,1-9.35-.29c-3.4-1.18-6.54-3.6-9.92-5.81a26,26,0,0,0-10.46-4.21,28.38,28.38,0,0,0-4.95-.3,27.23,27.23,0,0,0-4.29.49,25.24,25.24,0,0,0-5.95,1.95c-1.35.62-2.05,1.06-2.08,1a2.17,2.17,0,0,1,.49-.35,15.31,15.31,0,0,1,1.5-.85,23,23,0,0,1,6-2.13,27.62,27.62,0,0,1,4.36-.57,29.2,29.2,0,0,1,5,.27,26.14,26.14,0,0,1,10.68,4.24c3.4,2.24,6.49,4.63,9.79,5.8a16.11,16.11,0,0,0,9.11.38,43.79,43.79,0,0,0,6-1.87l1.6-.6A2.06,2.06,0,0,1,360,297.23Z" style="fill:#fafafa"></path><path d="M359.83,316.18c0,.05-.71-.14-2-.33a25.06,25.06,0,0,0-5.5-.14,44.47,44.47,0,0,0-8,1.5c-3,.81-6.2,1.9-9.66,2.85a38,38,0,0,1-10,1.53,21,21,0,0,1-8.1-1.62,14.54,14.54,0,0,1-4.62-3.1,11,11,0,0,1-1-1.16,2.65,2.65,0,0,1-.29-.44c.05,0,.47.56,1.41,1.45a14.92,14.92,0,0,0,4.63,2.91,21.15,21.15,0,0,0,7.95,1.48,38.63,38.63,0,0,0,9.86-1.56c3.44-.93,6.67-2,9.68-2.8a42.77,42.77,0,0,1,8.13-1.41,23.16,23.16,0,0,1,5.56.31,13.15,13.15,0,0,1,1.47.36A1.65,1.65,0,0,1,359.83,316.18Z" style="fill:#fafafa"></path><path d="M359.73,292.67c-.14,0-.26-7.25-.26-16.19s.12-16.19.26-16.19.27,7.25.27,16.19S359.88,292.67,359.73,292.67Z" style="fill:#263238"></path><path d="M352.46,302.47a1.13,1.13,0,0,1-.41.06c-.28,0-.68.06-1.21.05a21.4,21.4,0,0,1-4.41-.43,24.12,24.12,0,0,1-19.34-19.75,21.69,21.69,0,0,1-.34-4.42c0-.53.06-.93.08-1.2a1.28,1.28,0,0,1,.07-.42,37.31,37.31,0,0,0,.55,6,24.53,24.53,0,0,0,19.05,19.46A37.37,37.37,0,0,0,352.46,302.47Z" style="fill:#263238"></path><g style="opacity:0.30000000000000004"><path d="M311.81,327.06c11.19-6.66,26.19-5.53,36.26-13.78,4.75-3.89,7.83-9.49,9.68-15.34s2.54-12,3.23-18.07l1.92,33.92c.13,2.31.18,4.88-1.33,6.65-1.27,1.49-3.33,2-5.24,2.42l-24.54,5.46c-6.64,1.47-13.73,2.92-20.08.48"></path></g><g style="opacity:0.2"><path d="M343.82,242.76c-2.11,2.6-4.25,5.26-5.4,8.41s-1.14,6.91.87,9.59c2.19,2.92,6.31,3.88,9.89,3.17s6.72-2.83,9.56-5.11c1.42-1.14,3-2.39,4.79-2.35a20.55,20.55,0,0,1,3.14.7c2.95.52,5.87-1.4,7.55-3.87s2.43-5.43,3.38-8.27,2.25-5.71,4.65-7.5c2.23-1.66,5.34-2.33,6.72-4.74,1.74-3-.53-7.06-3.72-8.47s-6.84-.93-10.28-.44"></path></g><g style="opacity:0.2"><path d="M349.14,302.08c.19.29-.05.89-.85,1.59a8.6,8.6,0,0,1-4.07,1.79,13.18,13.18,0,0,1-6.64-.59,16.87,16.87,0,0,1-6.69-4.54,22.66,22.66,0,0,1-4.15-6.56A29.15,29.15,0,0,1,325,288c-.59-3.35-.47-5.46.2-5.66s1.86,1.6,3.3,4.49,3.25,6.79,6.21,10a16.48,16.48,0,0,0,4.68,3.63,13.93,13.93,0,0,0,4.62,1.36C346.82,302.11,348.72,301.44,349.14,302.08Z"></path></g><path d="M396.64,281.59c0,.14-8.29-.49-18.48-1.42s-18.44-1.79-18.43-1.94,8.29.49,18.48,1.42S396.65,281.44,396.64,281.59Z" style="fill:#263238"></path><path d="M335.52,136.72c4.55,4,8.07,7.14,12.89,10.18s9.81,6.67,11.6,12.09c1.3,3.93.82,8.6,3.43,11.82,2.23,2.75,6,3.56,9.13,5.22a17.52,17.52,0,0,1,9.07,15.29c0,4-1.39,8.24.49,11.75,1.64,3.06,5.31,4.56,7.13,7.52s1.48,6.4.91,9.66c-.87,5-2.72,10.38-7.18,12.78a12.2,12.2,0,0,1-10,.27,24.14,24.14,0,0,1-8.35-5.89A48.39,48.39,0,0,1,354,210.86c-2.84-7.38-3.81-15.33-5.18-23.12a224.25,224.25,0,0,0-11.65-41.83c-1.28-3.3-3.56-6.22-1.63-9.19" style="fill:#263238"></path><path d="M373.19,199.33s.27-.18.79-.51a25.28,25.28,0,0,0,2.18-1.56,16.74,16.74,0,0,0,2.93-3,11,11,0,0,0,2.11-5.07,9.08,9.08,0,0,0-1.59-6.33,6.59,6.59,0,0,0-2.84-2.28,12.11,12.11,0,0,0-3.89-.65,8.61,8.61,0,0,1-4.18-1.07,6.38,6.38,0,0,1-2.6-3.67,12.27,12.27,0,0,1-.41-4.64c.15-1.57.46-3.12.68-4.69a14.62,14.62,0,0,0,0-4.62,10.56,10.56,0,0,0-1.8-4.06,18.67,18.67,0,0,0-6.53-5.42c-2.41-1.31-4.84-2.33-7-3.49a63,63,0,0,1-13.69-9.63c-.86-.79-1.5-1.44-1.92-1.88l-.48-.51c-.11-.12-.16-.18-.15-.19l.18.15.52.48c.45.42,1.11,1,2,1.8a66.2,66.2,0,0,0,7.85,6,62.8,62.8,0,0,0,5.9,3.42c2.17,1.13,4.6,2.13,7.05,3.45a19.32,19.32,0,0,1,6.72,5.54,11.09,11.09,0,0,1,1.89,4.26,14.81,14.81,0,0,1,0,4.79c-.21,1.59-.53,3.13-.67,4.66a11.81,11.81,0,0,0,.38,4.45,5.88,5.88,0,0,0,2.38,3.4,8.17,8.17,0,0,0,3.95,1,12.47,12.47,0,0,1,4,.71,7,7,0,0,1,3,2.44,9.52,9.52,0,0,1,1.61,6.64,11.38,11.38,0,0,1-2.25,5.2,16.12,16.12,0,0,1-3,3,17.6,17.6,0,0,1-2.25,1.49c-.27.16-.48.26-.62.33A.67.67,0,0,1,373.19,199.33Z" style="fill:#263238"></path><path d="M277.71,192.35l17.38-10.51a1.51,1.51,0,0,1,2.07.51h0a1.51,1.51,0,0,1-.51,2.07l-17.38,10.51Z" style="fill:#675B9D"></path><g style="opacity:0.4"><path d="M296.65,184.42l-1.56-2.58h0a1.51,1.51,0,0,1,2.07.51h0a1.51,1.51,0,0,1-.51,2.07Z"></path></g><g style="opacity:0.4"><rect x="277.1" y="188.06" width="20.29" height="0.84" transform="translate(630.58 201.13) rotate(148.84)"></rect></g><polygon points="279.27 194.93 274.84 195.85 277.71 192.35 279.27 194.93" style="fill:#675B9D"></polygon><g style="opacity:0.5"><polygon points="279.27 194.93 274.84 195.85 277.71 192.35 279.27 194.93" style="fill:#fff"></polygon></g><polygon points="276.28 195.55 275.78 194.71 274.84 195.85 276.28 195.55" style="fill:#263238"></polygon><path d="M305.2,143a24.56,24.56,0,0,0-16,29.9c2.72,9.8,5.84,20.4,8.22,26.54,5.55,14.28,17.29,13.71,17.29,13.71s2.2,9.22,4.13,18c1.83,8.38,10.62,13.74,19.64,12h0c8.92-1.73,14.74-9.8,13.05-18.13l-14.72-64.2A24.56,24.56,0,0,0,305.2,143Z" style="fill:#b78876"></path><path d="M294.9,177.82a2,2,0,0,0,2.25,1.52,1.86,1.86,0,0,0,1.58-2.13,1.94,1.94,0,0,0-2.24-1.52A1.85,1.85,0,0,0,294.9,177.82Z" style="fill:#263238"></path><path d="M293.6,175.51c.29.2,1.5-1.17,3.54-1.61s3.76.26,3.92,0c.09-.13-.25-.52-1-.86a5.36,5.36,0,0,0-3.21-.28,5.18,5.18,0,0,0-2.75,1.6C293.58,174.93,293.46,175.43,293.6,175.51Z" style="fill:#263238"></path><path d="M315.8,174.09a1.94,1.94,0,0,0,2.24,1.52,1.85,1.85,0,0,0,1.59-2.13,2,2,0,0,0-2.25-1.52A1.85,1.85,0,0,0,315.8,174.09Z" style="fill:#263238"></path><path d="M315.06,171.65c.29.2,1.5-1.18,3.54-1.61s3.76.26,3.92,0c.09-.13-.25-.53-1-.86a5.29,5.29,0,0,0-3.21-.28,5.11,5.11,0,0,0-2.75,1.59C315,171.07,314.92,171.57,315.06,171.65Z" style="fill:#263238"></path><path d="M310.92,188.39a13.81,13.81,0,0,0-3.44.12c-.53.06-1.05.06-1.22-.28a2.77,2.77,0,0,1,0-1.62c.22-1.36.44-2.8.68-4.3.92-6.11,1.47-11.09,1.22-11.13s-1.19,4.89-2.11,11c-.21,1.5-.42,2.94-.61,4.31a3,3,0,0,0,.17,2.1,1.34,1.34,0,0,0,1,.58,3.58,3.58,0,0,0,.91-.07A13.18,13.18,0,0,0,310.92,188.39Z" style="fill:#263238"></path><path d="M314.73,212.85a38.5,38.5,0,0,0,18.67-9.57s-2.61,11.2-17.71,13Z" style="fill:#a36957"></path><path d="M320.13,164.22c-.15.42-1.77.22-3.71.33s-3.54.45-3.72,0,1.36-1.49,3.64-1.6S320.28,163.83,320.13,164.22Z" style="fill:#263238"></path><path d="M299.23,166.15c0,.44-1.65.84-3.61,1.43s-3.59,1.12-3.82.74,1.19-1.61,3.38-2.24S299.23,165.73,299.23,166.15Z" style="fill:#263238"></path><path d="M375.55,219.59s-8-8.82-7.39-18.94-2.51-16.68-8.17-19c-4-1.63-5.55-5.72-6.16-9.13a68.25,68.25,0,0,0-5-16.61c-3.52-7.6-8.21-15.43-14.74-20.35-8.49-6.4-21.82-10.68-30-3.92-3.81,3.14-6.05,3.64-9.45,9,0,0-4.09,1.43-6.2,2.39-7.26,3.3-9.92,12.78-9.15,19,1.78,14.31,10.45,16.12,13.84,25.25,0,0-4.07-19.87-3.75-25.34a17.26,17.26,0,0,1,5.08-10.66c5.76-1,8.81,1.69,12.12,6.52s5.47,8.78,10.9,11c5.11,2.08,9.66,6.7,16.58,1.8a17,17,0,0,1,4.13,8.83c.49,5-4.4,7.75-.81,15.42s10.3,12.87,11,15.92" style="fill:#263238"></path><path d="M314.68,192.51a3.12,3.12,0,0,1,2.52-1.68,2.84,2.84,0,0,1,2.13.65,1.79,1.79,0,0,1,.54,2,2.11,2.11,0,0,1-2.11,1,6.58,6.58,0,0,1-2.43-.87,1.87,1.87,0,0,1-.59-.4.59.59,0,0,1-.12-.64" style="fill:#675B9D"></path><path d="M318.38,188.74c-.28,0,.08,1.88-1.23,3.51s-3.33,1.81-3.29,2.07.51.27,1.35.13a4.64,4.64,0,0,0,2.76-1.63,4.07,4.07,0,0,0,.91-2.92C318.8,189.12,318.5,188.7,318.38,188.74Z" style="fill:#263238"></path><path d="M337.33,194.33a15.83,15.83,0,0,1,4,15.31c-1,3.51-3.25,6.63-3.76,10.24-.63,4.4,1.4,8.68,3.09,12.79s3.11,8.82,1.31,12.88c-.74,1.7-2,3.14-2.77,4.83s-.93,3.9.36,5.23a5.55,5.55,0,0,0,3.56,1.31,24.19,24.19,0,0,0,23.47-13.61l2,4.35a34.52,34.52,0,0,0-4.05-43.15" style="fill:#263238"></path><path d="M331.42,173.62c-.22-1,1.79-3.45,2.76-3.71,2.24-.58,6.14-.53,7.92,5.62,2.55,8.79-6.53,8.54-6.62,8.29S332.19,177.08,331.42,173.62Z" style="fill:#b78876"></path><path d="M336.64,179.87s.18.07.48.11a1.59,1.59,0,0,0,1.15-.31c.83-.61,1.18-2.31.77-3.9A5.16,5.16,0,0,0,338,173.7a1.84,1.84,0,0,0-1.49-.85.83.83,0,0,0-.78.68c-.05.29.06.44,0,.47s-.23-.09-.27-.47a1,1,0,0,1,.19-.65,1.19,1.19,0,0,1,.78-.47,2.24,2.24,0,0,1,2,.9,5.33,5.33,0,0,1,1.23,2.29c.46,1.79,0,3.71-1.13,4.45a1.71,1.71,0,0,1-1.47.17C336.72,180.08,336.61,179.9,336.64,179.87Z" style="fill:#a36957"></path><path d="M378.72,198.76c-.11,0,0-.42,0-1.13a7.11,7.11,0,0,0-.56-3,9.55,9.55,0,0,0-2.89-3.75,20.25,20.25,0,0,0-5.8-2.89,42.45,42.45,0,0,1-7.76-3.21,12.47,12.47,0,0,1-3.72-3.31,17,17,0,0,1-2.29-4.64c-.56-1.61-1-3.24-1.63-4.76a10.11,10.11,0,0,0-2.57-3.91c-2.33-2.07-6-2.52-9.63-2.24s-7.44,1.2-11.33.89a15.41,15.41,0,0,1-5.55-1.51,20.49,20.49,0,0,1-4.46-3,58.16,58.16,0,0,1-6.45-7.12,39.1,39.1,0,0,0-5.5-5.8A13.4,13.4,0,0,0,298.16,146a9.05,9.05,0,0,0-2.94.93c-.65.32-1,.52-1.05.45s.17-.4.76-.89a7.72,7.72,0,0,1,3-1.49,12.1,12.1,0,0,1,5.34-.08,15.72,15.72,0,0,1,6.42,3,38.45,38.45,0,0,1,6,5.86,61.2,61.2,0,0,0,6.36,6.69,14.72,14.72,0,0,0,8.65,3.83c3.36.25,7-.6,10.93-.94a21.61,21.61,0,0,1,6,.29,11.66,11.66,0,0,1,5.52,2.63,12.57,12.57,0,0,1,3.19,4.9c.66,1.72,1.09,3.38,1.59,4.91a15.19,15.19,0,0,0,1.88,4.08,10.44,10.44,0,0,0,3,2.81,43.58,43.58,0,0,0,7.28,3.32,20.3,20.3,0,0,1,6.07,3.5,10,10,0,0,1,2.92,4.53,6.4,6.4,0,0,1,.12,3.39C379,198.46,378.78,198.79,378.72,198.76Z" style="fill:#455a64"></path><path d="M326.33,132.61a9.52,9.52,0,0,1-2.95-6.82,7.71,7.71,0,0,1,3.51-6.42,7.88,7.88,0,0,1,4.94-1,9,9,0,1,1-7.61,15" style="fill:#263238"></path><path d="M335.07,135.05a4.67,4.67,0,0,1-1.84.12,12,12,0,0,1-4.33-1.12,12.11,12.11,0,0,1-3.61-2.62,4.38,4.38,0,0,1-1.07-1.5,15.53,15.53,0,0,0,10.85,5.12Z" style="fill:#675B9D"></path><path d="M288.59,181.9a11.92,11.92,0,0,1,.07-1.6,17.62,17.62,0,0,0-.61-4.3,44.84,44.84,0,0,0-2.32-6.06A42,42,0,0,1,283,162.4a15.3,15.3,0,0,1-.36-4.18,11.22,11.22,0,0,1,.93-3.8,12.9,12.9,0,0,1,4.05-5.15,12,12,0,0,1,4-2,6.76,6.76,0,0,1,1.18-.24q.42-.06.42,0c0,.06-.56.13-1.54.46a12.77,12.77,0,0,0-7.63,7.12,10.85,10.85,0,0,0-.86,3.65,14.69,14.69,0,0,0,.36,4,43,43,0,0,0,2.68,7.46,40.31,40.31,0,0,1,2.22,6.15,15.86,15.86,0,0,1,.46,4.4c-.05.52-.13.93-.17,1.2S288.61,181.91,288.59,181.9Z" style="fill:#455a64"></path><path d="M297.82,253.33a4.57,4.57,0,0,1-.59-.35,14.4,14.4,0,0,1-1.59-1.15,20.68,20.68,0,0,1-4.58-5.52,28.7,28.7,0,0,1-3.42-10.09,46.92,46.92,0,0,1,.16-13c.63-4.6,1.57-8.9,2.31-12.83a92.11,92.11,0,0,0,1.49-10.5,46.46,46.46,0,0,0,0-7.13c-.14-1.69-.31-2.61-.25-2.62a4.32,4.32,0,0,1,.15.67c.1.43.19,1.08.3,1.93a41.16,41.16,0,0,1,.16,7.18,88.32,88.32,0,0,1-1.39,10.56c-.72,3.94-1.64,8.24-2.26,12.81a47.59,47.59,0,0,0-.21,12.9,28.79,28.79,0,0,0,3.27,10,21.43,21.43,0,0,0,4.4,5.56C297,252.79,297.85,253.27,297.82,253.33Z" style="fill:#455a64"></path><path d="M342.41,251.24s0-.07.18-.18l.57-.48c.51-.42,1.25-1,2.18-1.86a46.74,46.74,0,0,0,7.08-7.73,28.65,28.65,0,0,0,5.49-14.3,21.6,21.6,0,0,0-1.08-9c-1-3-3.05-5.66-4.73-8.63a17.33,17.33,0,0,1-1.93-4.7,18.69,18.69,0,0,1-.39-4.92c.13-3.23.71-6.27.77-9.19a28.42,28.42,0,0,0-.92-8.2,19.57,19.57,0,0,0-3.07-6.48,15.85,15.85,0,0,0-8.36-5.92,16.58,16.58,0,0,0-3.8-.52l.25,0,.75,0a13.33,13.33,0,0,1,2.85.38,15.89,15.89,0,0,1,8.61,5.9,20.17,20.17,0,0,1,3.19,6.58,28.6,28.6,0,0,1,1,8.33c0,3-.62,6-.74,9.2a18,18,0,0,0,.38,4.78,16.9,16.9,0,0,0,1.88,4.57c1.65,2.92,3.73,5.61,4.76,8.71a22,22,0,0,1,1.08,9.2,28.68,28.68,0,0,1-5.68,14.48,44.47,44.47,0,0,1-7.24,7.67c-1,.8-1.71,1.39-2.24,1.78l-.61.44A1.46,1.46,0,0,1,342.41,251.24Z" style="fill:#455a64"></path><path d="M342.55,181.2s.32.16.77.6a4.84,4.84,0,0,1,1.35,2.3,4.4,4.4,0,0,1-1,3.81,5,5,0,0,1-4.45,1.82,4.8,4.8,0,0,1-3.74-3,4,4,0,0,1-.19-2.16,4.33,4.33,0,0,1,.75-1.73,4.13,4.13,0,0,1,2.15-1.58,1.91,1.91,0,0,1,1-.11c0,.05-.34.08-.9.3a4.22,4.22,0,0,0-1.92,1.6,3.79,3.79,0,0,0-.41,3.51,4.4,4.4,0,0,0,3.36,2.68,4.57,4.57,0,0,0,4-1.62,4.08,4.08,0,0,0,1-3.42,5.12,5.12,0,0,0-1.14-2.25A6.72,6.72,0,0,1,342.55,181.2Z" style="fill:#675B9D"></path><path d="M337.61,140a2.14,2.14,0,0,1-.07.45c0,.17-.08.35-.13.55l-.24.73a11.62,11.62,0,0,1-2.65,4.09,12.48,12.48,0,0,1-6.3,3.48,11.74,11.74,0,0,1-4.31.08,19,19,0,0,1-4.4-1.37c-2.89-1.28-5.39-2.93-7.8-4.11a18,18,0,0,0-6.74-2.1,10.56,10.56,0,0,0-4.7.64c-1,.43-1.55.82-1.58.78a1.61,1.61,0,0,1,.35-.3,7.66,7.66,0,0,1,1.15-.67,10.41,10.41,0,0,1,4.8-.82,17.93,17.93,0,0,1,6.93,2c2.46,1.18,5,2.81,7.8,4.06A18.33,18.33,0,0,0,324,148.9a11.21,11.21,0,0,0,4.13,0,12.31,12.31,0,0,0,6.14-3.27,12.13,12.13,0,0,0,2.72-3.91l.29-.7.17-.52C337.53,140.17,337.59,140,337.61,140Z" style="fill:#455a64"></path><polygon points="317.9 358.28 255.14 388.61 140.09 357.24 196.57 326.38 317.9 358.28" style="fill:#263238"></polygon><polygon points="248.7 357 265.36 362.5 280.79 354.12 255.11 345.88 240.12 353.65 248.7 357" style="fill:#455a64"></polygon><path d="M125.45,272.52c.52,2.09,14.64,84.72,14.64,84.72l115,31.37L240,300.23Z" style="fill:#263238"></path><path d="M246.77,339.82c.14,0,2.13,10.88,4.44,24.35s4.07,24.42,3.93,24.44-2.13-10.87-4.44-24.35S246.63,339.84,246.77,339.82Z" style="fill:#455a64"></path><ellipse cx="184.11" cy="326.38" rx="6.04" ry="7.02" transform="translate(-105.46 88.53) rotate(-21.17)" style="fill:#455a64"></ellipse><path d="M303.91,346.05s67.37,5.77,78.52-2.31,11.16-62.32,11.16-62.32l-33.38-3.08-.48,37.7c-2.3,1.92-60.39,11.54-65.39,11.16,0,0-30.45,3.25-32.11,3.25S249.55,343,249.55,343.58a3.25,3.25,0,0,0,1.21,2.26,2.53,2.53,0,0,0,.15,3.32s-.45,2.12,1.21,2.57,1.81,1.21,3.77,0S267.51,343,267.51,343l7.25-.61s-17.66,10.11-16.15,12.38,5-.3,8.9-2.42,10.42-5.88,11.62-6.19S303.91,346.05,303.91,346.05Z" style="fill:#b78876"></path><path d="M272,336.55c0,.1-1.4.09-3.56.65a24,24,0,0,0-7.78,3.8,55.56,55.56,0,0,0-6.54,5.8,27.65,27.65,0,0,1-2.62,2.54,4.54,4.54,0,0,1,.59-.79c.41-.48,1-1.17,1.76-2a44.1,44.1,0,0,1,6.51-6,22.13,22.13,0,0,1,8-3.74,14.26,14.26,0,0,1,2.67-.34A3,3,0,0,1,272,336.55Z" style="fill:#a36957"></path><path d="M268.21,334.08c0,.1-1.21.08-3.07.59a19.67,19.67,0,0,0-6.66,3.39,44.06,44.06,0,0,0-5.51,5.19,22.67,22.67,0,0,1-2.2,2.26A17.05,17.05,0,0,1,252.7,343a35.73,35.73,0,0,1,5.46-5.35,18,18,0,0,1,6.89-3.34,11.29,11.29,0,0,1,2.31-.29A2.39,2.39,0,0,1,268.21,334.08Z" style="fill:#a36957"></path><path d="M370.32,327.49c-.09,0-.31-.89-.91-2.25a16.94,16.94,0,0,0-7.85-8.23c-1.33-.66-2.23-.93-2.2-1a6.9,6.9,0,0,1,2.36.69,15.12,15.12,0,0,1,8,8.42A6.85,6.85,0,0,1,370.32,327.49Z" style="fill:#aa6550"></path></g></svg>
